<?xml version="1.0" encoding="utf-8"?>
<svg
	version="1.1"
	xmlns="http://www.w3.org/2000/svg"
	xmlns:xlink="http://www.w3.org/1999/xlink"
	x="0%" y="0%"
	width="100%" height="100%"
	viewBox="0 0 24.0 24.0"
	enable-background="new 0 0 24.0 24.0"
	xml:space="preserve">
	<path
		fill="#CC13FF"
		fill-opacity="1.000"
		fill-rule="nonzero"
		stroke="#000000"
		stroke-opacity="1.000"
		stroke-width="0.0"
		stroke-linejoin="miter"
		stroke-linecap="square"
		d="M0.00001,0.00001L24.00,0.00001L24.00,24.00L0.00001,24.00z"/>
	<path
		fill="#FFFFFF"
		fill-opacity="1.000"
		fill-rule="nonzero"
		stroke="#FFFFFF"
		stroke-opacity="1.000"
		stroke-width="0.144"
		stroke-linejoin="miter"
		stroke-linecap="square"
		d="M11.56,2.62C12.75,2.62,13.71,3.60,13.71,4.81C13.71,6.02,12.75,7.00,11.56,7.00C10.38,7.00,9.42,6.02,9.42,4.81C9.42,3.60,10.38,2.62,11.56,2.62z"/>
	<path
		fill="#FFFFFF"
		fill-opacity="1.000"
		fill-rule="nonzero"
		stroke="#FFFFFF"
		stroke-opacity="1.000"
		stroke-width="0.144"
		stroke-linejoin="miter"
		stroke-linecap="square"
		d="M16.25,7.31C17.44,7.31,18.40,8.30,18.40,9.51C18.40,10.72,17.44,11.70,16.25,11.70C15.07,11.70,14.11,10.72,14.11,9.51C14.11,8.30,15.07,7.31,16.25,7.31z"/>
	<path
		fill="#FFFFFF"
		fill-opacity="1.000"
		fill-rule="nonzero"
		stroke="#FFFFFF"
		stroke-opacity="1.000"
		stroke-width="0.144"
		stroke-linejoin="miter"
		stroke-linecap="square"
		d="M20.95,12.01C22.13,12.01,23.09,12.99,23.09,14.20C23.09,15.41,22.13,16.39,20.95,16.39C19.76,16.39,18.80,15.41,18.80,14.20C18.80,12.99,19.76,12.01,20.95,12.01z"/>
	<path
		fill="#FFFFFF"
		fill-opacity="1.000"
		fill-rule="nonzero"
		stroke="#FFFFFF"
		stroke-opacity="1.000"
		stroke-width="0.144"
		stroke-linejoin="miter"
		stroke-linecap="square"
		d="M6.99,7.31C8.18,7.31,9.14,8.30,9.14,9.51C9.14,10.72,8.18,11.70,6.99,11.70C5.80,11.70,4.84,10.72,4.84,9.51C4.84,8.30,5.80,7.31,6.99,7.31z"/>
	<path
		fill="#FFFFFF"
		fill-opacity="1.000"
		fill-rule="nonzero"
		stroke="#FFFFFF"
		stroke-opacity="1.000"
		stroke-width="0.144"
		stroke-linejoin="miter"
		stroke-linecap="square"
		d="M3.05,12.01C4.24,12.01,5.20,12.99,5.20,14.20C5.20,15.41,4.24,16.39,3.05,16.39C1.87,16.39,0.91,15.41,0.91,14.20C0.91,12.99,1.87,12.01,3.05,12.01z"/>
	<path
		fill="#FFFFFF"
		fill-opacity="1.000"
		fill-rule="nonzero"
		stroke="#FFFFFF"
		stroke-opacity="1.000"
		stroke-width="0.144"
		stroke-linejoin="miter"
		stroke-linecap="square"
		d="M6.99,17.00C8.18,17.00,9.14,17.98,9.14,19.19C9.14,20.40,8.18,21.38,6.99,21.38C5.80,21.38,4.84,20.40,4.84,19.19C4.84,17.98,5.80,17.00,6.99,17.00z"/>
	<path
		fill="#FFFFFF"
		fill-opacity="1.000"
		fill-rule="nonzero"
		stroke="#FFFFFF"
		stroke-opacity="1.000"
		stroke-width="0.624"
		stroke-linejoin="miter"
		stroke-linecap="square"
		d="M11.56,4.81L16.25,9.51"/>
	<path
		fill="#FFFFFF"
		fill-opacity="1.000"
		fill-rule="nonzero"
		stroke="#FFFFFF"
		stroke-opacity="1.000"
		stroke-width="0.624"
		stroke-linejoin="miter"
		stroke-linecap="square"
		d="M16.25,9.51L20.95,14.20"/>
	<path
		fill="#FFFFFF"
		fill-opacity="1.000"
		fill-rule="nonzero"
		stroke="#FFFFFF"
		stroke-opacity="1.000"
		stroke-width="0.624"
		stroke-linejoin="miter"
		stroke-linecap="square"
		d="M11.56,4.81L6.99,9.51"/>
	<path
		fill="#FFFFFF"
		fill-opacity="1.000"
		fill-rule="nonzero"
		stroke="#FFFFFF"
		stroke-opacity="1.000"
		stroke-width="0.624"
		stroke-linejoin="miter"
		stroke-linecap="square"
		d="M6.99,9.51L3.05,14.20"/>
	<path
		fill="#FFFFFF"
		fill-opacity="1.000"
		fill-rule="nonzero"
		stroke="#FFFFFF"
		stroke-opacity="1.000"
		stroke-width="0.624"
		stroke-linejoin="miter"
		stroke-linecap="square"
		d="M3.05,14.20L6.99,19.19"/>
</svg>