<?xml version="1.0" encoding="utf-8"?>
<svg
	version="1.1"
	xmlns="http://www.w3.org/2000/svg"
	xmlns:xlink="http://www.w3.org/1999/xlink"
	x="0%" y="0%"
	width="100%" height="100%"
	viewBox="0 0 24.0 24.0"
	enable-background="new 0 0 24.0 24.0"
	xml:space="preserve">
	<path
		fill="#CC13FF"
		fill-opacity="1.000"
		fill-rule="nonzero"
		stroke="#000000"
		stroke-opacity="1.000"
		stroke-width="0.0"
		stroke-linejoin="miter"
		stroke-linecap="square"
		d="M0.00001,0.00001L24.00,0.00001L24.00,24.00L0.00001,24.00z"/>
	<path
		fill="#FFFFFF"
		fill-opacity="1.000"
		fill-rule="nonzero"
		stroke="#FFFFFF"
		stroke-opacity="1.000"
		stroke-width="0.2136"
		stroke-linejoin="miter"
		stroke-linecap="square"
		d="M0.60,0.66L7.63,0.66L7.63,7.96L0.60,7.96z"/>
	<path
		fill="#FFFFFF"
		fill-opacity="1.000"
		fill-rule="nonzero"
		stroke="#FFFFFF"
		stroke-opacity="1.000"
		stroke-width="0.2136"
		stroke-linejoin="miter"
		stroke-linecap="square"
		d="M16.36,16.06L23.38,16.06L23.38,23.37L16.36,23.37z"/>
	<path
		fill="#FFFFFF"
		fill-opacity="1.000"
		fill-rule="nonzero"
		stroke="#FFFFFF"
		stroke-opacity="1.000"
		stroke-width="0.2136"
		stroke-linejoin="miter"
		stroke-linecap="square"
		d="M8.49,8.35L15.51,8.35L15.51,15.65L8.49,15.65z"/>
	<path
		fill="#FFFFFF"
		fill-opacity="1.000"
		fill-rule="nonzero"
		stroke="#FFFFFF"
		stroke-opacity="1.000"
		stroke-width="0.37128484"
		stroke-linejoin="miter"
		stroke-linecap="square"
		d="M8.13,4.12L11.38,4.12"/>
	<path
		fill="#FFFFFF"
		fill-opacity="1.000"
		fill-rule="nonzero"
		stroke="#FFFFFF"
		stroke-opacity="1.000"
		stroke-width="0.37128484"
		stroke-linejoin="miter"
		stroke-linecap="square"
		d="M11.38,7.37L11.38,4.12"/>
	<path
		fill="#FFFFFF"
		fill-opacity="1.000"
		fill-rule="nonzero"
		stroke="#FFFFFF"
		stroke-opacity="1.000"
		stroke-width="0.37128475"
		stroke-linejoin="miter"
		stroke-linecap="round"
		d="M10.61,6.99L11.39,7.75M11.39,7.75L12.14,6.99"/>
	<path
		fill="#FFFFFF"
		fill-opacity="1.000"
		fill-rule="nonzero"
		stroke="#FFFFFF"
		stroke-opacity="1.000"
		stroke-width="0.37128475"
		stroke-linejoin="miter"
		stroke-linecap="round"
		d="M10.61,6.99L11.39,7.75M11.39,7.75L10.61,6.99"/>
	<path
		fill="#FFFFFF"
		fill-opacity="1.000"
		fill-rule="nonzero"
		stroke="#FFFFFF"
		stroke-opacity="1.000"
		stroke-width="0.37128475"
		stroke-linejoin="miter"
		stroke-linecap="round"
		d="M10.61,6.99L12.14,6.99"/>
	<path
		fill="#FFFFFF"
		fill-opacity="1.000"
		fill-rule="nonzero"
		stroke="#FFFFFF"
		stroke-opacity="1.000"
		stroke-width="0.37128487"
		stroke-linejoin="miter"
		stroke-linecap="square"
		d="M16.00,11.95L19.24,11.95"/>
	<path
		fill="#FFFFFF"
		fill-opacity="1.000"
		fill-rule="nonzero"
		stroke="#FFFFFF"
		stroke-opacity="1.000"
		stroke-width="0.37128487"
		stroke-linejoin="miter"
		stroke-linecap="square"
		d="M19.24,15.20L19.24,11.95"/>
	<path
		fill="#FFFFFF"
		fill-opacity="1.000"
		fill-rule="nonzero"
		stroke="#FFFFFF"
		stroke-opacity="1.000"
		stroke-width="0.3712848"
		stroke-linejoin="miter"
		stroke-linecap="round"
		d="M18.48,14.82L19.26,15.58M19.26,15.58L20.01,14.82"/>
	<path
		fill="#FFFFFF"
		fill-opacity="1.000"
		fill-rule="nonzero"
		stroke="#FFFFFF"
		stroke-opacity="1.000"
		stroke-width="0.3712848"
		stroke-linejoin="miter"
		stroke-linecap="round"
		d="M18.48,14.82L19.26,15.58M19.26,15.58L18.48,14.82"/>
	<path
		fill="#FFFFFF"
		fill-opacity="1.000"
		fill-rule="nonzero"
		stroke="#FFFFFF"
		stroke-opacity="1.000"
		stroke-width="0.3712848"
		stroke-linejoin="miter"
		stroke-linecap="round"
		d="M18.48,14.82L20.01,14.82"/>
</svg>